<svg width="94" height="95" viewBox="0 0 94 95" fill="none" xmlns="http://www.w3.org/2000/svg">
<g clip-path="url(#clip0_97_814)">
<path d="M93.9944 47.5C93.9944 21.3048 72.9138 0 47 0C21.0862 0 0 21.3048 0 47.5C0 73.6952 20.3469 94.2246 45.6279 94.966C46.0815 94.9887 46.5408 95 47 95C47.4592 95 47.9185 94.9887 48.3721 94.966C73.6531 94.2302 94 73.2311 94 47.5H93.9944ZM47 25.5329C51.4469 25.5329 55.0648 29.1894 55.0648 33.6836C55.0648 38.1777 51.4469 41.8342 47 41.8342C42.5531 41.8342 38.9352 38.1777 38.9352 33.6836C38.9352 29.1894 42.5531 25.5329 47 25.5329ZM50.4836 75.1046C50.4836 65.3295 57.4899 57.1732 66.6972 55.5091V68.0407C66.6972 77.8158 59.6909 85.9721 50.4836 87.6361V75.1046ZM43.5108 87.6361C34.3035 85.9664 27.2972 77.8158 27.2972 68.0407V55.5091C36.5045 57.1789 43.5108 65.3295 43.5108 75.1046V87.6361ZM70.948 79.8874C72.6898 76.3102 73.6699 72.2858 73.6699 68.035V51.6659C73.6699 49.7188 72.1074 48.1453 70.1864 48.1453C60.2622 48.1453 51.5925 53.6526 47 61.8032C42.4075 53.6582 33.7378 48.1453 23.8136 48.1453C21.887 48.1453 20.3301 49.7244 20.3301 51.6659V68.035C20.3301 72.2858 21.3102 76.3045 23.052 79.8817C13.3014 72.4952 6.97831 60.7278 6.97831 47.4887C6.97271 26.382 23.0688 8.99964 43.5108 7.21103V18.9162C36.8966 20.5124 31.9625 26.5178 31.9625 33.6836C31.9625 42.0606 38.7056 48.8811 47 48.8811C55.2944 48.8811 62.0375 42.0663 62.0375 33.6836C62.0375 26.5178 57.0978 20.5124 50.4892 18.9162V7.21103C70.9312 9.0053 87.0273 26.382 87.0273 47.5C87.0273 60.7334 80.7042 72.5065 70.9537 79.893L70.948 79.8874Z" fill="#012D13"/>
</g>
<defs>
<clipPath id="clip0_97_814">
<rect width="94" height="95" fill="white"/>
</clipPath>
</defs>
</svg>
