<svg width="359" height="108" viewBox="0 0 359 108" fill="none" xmlns="http://www.w3.org/2000/svg">
<g clip-path="url(#clip0_94_549)">
<g clip-path="url(#clip1_94_549)">
<path d="M142.953 34.9032H153.348L167.635 71.4171H157.765L155.687 65.6801H140.62L138.542 71.4171H128.672L142.959 34.9032H142.953ZM152.83 57.8511L149.09 47.3141C148.777 46.4285 148.47 45.4852 148.157 43.6113C147.843 45.4916 147.53 46.4285 147.223 47.3141L143.484 57.8511H152.836H152.83Z" fill="#182F29"/>
<path d="M171.17 81.3253V73.7594C173.874 75.4279 177.352 76.3648 180.734 76.3648C184.736 76.3648 187.855 75.1647 187.855 70.8845V69.37C186.347 70.9358 183.905 72.1872 180.427 72.1872C172.059 72.1872 168.37 65.3528 168.37 58.8843C168.37 52.4157 172.059 45.5814 180.427 45.5814C184.895 45.5814 187.651 47.667 188.897 49.7526V46.3643H196.69V70.3583C196.69 80.3755 189.466 83.6611 181.936 83.6611C177.934 83.6611 174.194 82.7756 171.177 81.3124L171.17 81.3253ZM182.805 64.8972C185.247 64.8972 187.069 63.3828 187.842 61.7656V56.0286C187.063 54.4115 185.247 52.897 182.805 52.897C179.065 52.897 177.454 55.9709 177.454 58.8971C177.454 61.8234 179.065 64.8972 182.805 64.8972Z" fill="#182F29"/>
<path d="M201.977 46.3772H209.769V49.7655C211.483 47.2627 214.653 45.3312 219.537 45.851V54.4564C216.053 53.6735 212.365 54.7709 210.805 57.1709V71.4107H201.97V46.3707L201.977 46.3772Z" fill="#182F29"/>
<path d="M221.308 58.8971C221.308 50.0286 227.854 45.5943 235.34 45.5943C242.826 45.5943 249.372 50.0286 249.372 58.8971C249.372 67.7657 242.826 72.2 235.34 72.2C227.854 72.2 221.308 67.7657 221.308 58.8971ZM235.34 64.371C238.978 64.371 240.275 61.7079 240.275 58.8907C240.275 56.0736 238.978 53.4104 235.34 53.4104C231.703 53.4104 230.405 56.0736 230.405 58.8907C230.405 61.7079 231.703 64.371 235.34 64.371Z" fill="#182F29"/>
<path d="M253.419 34.9032H262.253V55.1431H264.229L269.682 46.3772H279.552L271.446 58.6854L280.07 71.4107H270.25L264.12 61.9196H262.247V71.4107H253.412V34.8968L253.419 34.9032Z" fill="#182F29"/>
<path d="M280.07 58.8971C280.07 50.0286 286.616 45.5943 294.102 45.5943C301.587 45.5943 308.133 50.0286 308.133 58.8971C308.133 67.7657 301.587 72.2 294.102 72.2C286.616 72.2 280.07 67.7657 280.07 58.8971ZM294.102 64.371C297.739 64.371 299.037 61.7079 299.037 58.8907C299.037 56.0736 297.739 53.4104 294.102 53.4104C290.464 53.4104 289.166 56.0736 289.166 58.8907C289.166 61.7079 290.464 64.371 294.102 64.371Z" fill="#182F29"/>
<path d="M312.18 46.3772H319.973V49.7655C321.686 47.2627 324.857 45.3312 329.741 45.851V54.4564C326.257 53.6735 322.568 54.7709 321.008 57.1709V71.4107H312.174V46.3707L312.18 46.3772Z" fill="#182F29"/>
<path d="M331.249 64.4801C331.249 58.1656 337.227 56.2404 342.059 56.2404C343.932 56.2404 345.799 56.4522 347.461 56.8115V55.926C347.461 54.1548 345.799 52.7944 342.264 52.7944C338.991 52.7944 335.98 53.7313 333.532 54.7259V47.2692C335.609 46.5889 339.56 45.6007 343.248 45.6007C351.201 45.6007 356.29 48.3665 356.29 57.2864V64.2748C356.29 65.4748 357.121 65.8406 358.003 65.8406C358.316 65.8406 358.68 65.7892 358.987 65.6865V71.1668C357.792 71.6353 356.181 71.9497 354.519 71.9497C351.866 71.9497 349.839 71.0128 348.701 69.3443L348.599 69.1903C346.208 71.0706 343.453 72.2128 339.924 72.2128C335.143 72.2128 331.243 69.3443 331.243 64.4929L331.249 64.4801ZM343.357 66.1999C344.815 66.1999 346.112 65.8855 347.461 64.8972V61.5089C346.681 61.2458 345.486 61.0405 344.29 61.0405C342.213 61.0405 340.34 61.772 340.34 63.755C340.34 65.0577 341.484 66.2063 343.351 66.2063L343.357 66.1999Z" fill="#182F29"/>
<path d="M107.288 53.8532C107.288 24.1544 83.2263 0 53.6474 0C24.0684 0 0 24.1544 0 53.8532C0 83.552 23.2246 106.827 52.0811 107.668C52.599 107.694 53.1232 107.706 53.6474 107.706C54.1716 107.706 54.6958 107.694 55.2136 107.668C84.0701 106.834 107.295 83.0258 107.295 53.8532H107.288ZM53.6474 28.948C58.7231 28.948 62.8528 33.0935 62.8528 38.1888C62.8528 43.2841 58.7231 47.4296 53.6474 47.4296C48.5716 47.4296 44.4419 43.2841 44.4419 38.1888C44.4419 33.0935 48.5716 28.948 53.6474 28.948ZM57.6236 85.1499C57.6236 74.0674 65.6208 64.8202 76.1304 62.9336V77.1413C76.1304 88.2238 68.1332 97.471 57.6236 99.3576V85.1499ZM49.6647 99.3576C39.1552 97.4646 31.1579 88.2238 31.1579 77.1413V62.9336C41.6675 64.8266 49.6647 74.0674 49.6647 85.1499V99.3576ZM80.9824 90.5725C82.9706 86.5168 84.0893 81.9542 84.0893 77.1348V58.5763C84.0893 56.3688 82.3057 54.5848 80.113 54.5848C68.7852 54.5848 58.8893 60.8287 53.6474 70.0695C48.4054 60.8351 38.5095 54.5848 27.1817 54.5848C24.9826 54.5848 23.2054 56.3752 23.2054 58.5763V77.1348C23.2054 81.9542 24.3241 86.5104 26.3123 90.5661C15.1826 82.1916 7.96528 68.8502 7.96528 53.8404C7.95888 29.9106 26.3314 10.2034 49.6647 8.17552V21.4463C42.115 23.256 36.483 30.0646 36.483 38.1888C36.483 47.6863 44.1798 55.419 53.6474 55.419C63.1149 55.419 70.8117 47.6927 70.8117 38.1888C70.8117 30.0646 65.1734 23.256 57.63 21.4463V8.17552C80.9633 10.2098 99.3358 29.9106 99.3358 53.8532C99.3358 68.8566 92.1185 82.2044 80.9888 90.5789L80.9824 90.5725Z" fill="#182F29"/>
</g>
</g>
<defs>
<clipPath id="clip0_94_549">
<rect width="359" height="107.7" fill="white"/>
</clipPath>
<clipPath id="clip1_94_549">
<rect width="359" height="107.7" fill="white"/>
</clipPath>
</defs>
</svg>
